<?xml version="1.0" encoding="utf-8"?>
<!-- Generator: Adobe Illustrator 23.0.1, SVG Export Plug-In . SVG Version: 6.00 Build 0)  -->
<svg version="1.1" id="レイヤー_1" xmlns="http://www.w3.org/2000/svg" xmlns:xlink="http://www.w3.org/1999/xlink" x="0px"
	 y="0px" viewBox="0 0 308.9 80.2" style="enable-background:new 0 0 308.9 80.2;" xml:space="preserve">
<g>
	<path d="M25.9,23.2c-2.3,1.9-5.5,2.9-9.8,2.9H8.1v14H0V1.2h16.7c3.9,0,6.9,1,9.2,3c2.3,2,3.4,5.1,3.4,9.3
		C29.3,18.1,28.2,21.3,25.9,23.2z M19.7,9.2c-1-0.9-2.5-1.3-4.3-1.3H8.1v11.5h7.3c1.9,0,3.3-0.5,4.3-1.4c1-0.9,1.5-2.4,1.5-4.4
		C21.3,11.5,20.8,10.1,19.7,9.2z"/>
	<path d="M65.8,36.6c-2.9,3-7.2,4.5-12.7,4.5s-9.8-1.5-12.7-4.5c-3.9-3.7-5.9-9.1-5.9-16c0-7.1,2-12.5,5.9-16
		c2.9-3,7.2-4.5,12.7-4.5s9.8,1.5,12.7,4.5c3.9,3.6,5.9,8.9,5.9,16C71.7,27.6,69.7,32.9,65.8,36.6z M60.7,30.7
		c1.9-2.4,2.8-5.8,2.8-10.1c0-4.4-0.9-7.7-2.8-10.1c-1.9-2.4-4.4-3.6-7.7-3.6s-5.8,1.2-7.7,3.6s-2.9,5.8-2.9,10.1s1,7.8,2.9,10.1
		s4.5,3.6,7.7,3.6S58.8,33.1,60.7,30.7z"/>
	<path d="M102.8,2.2c1.4,0.6,2.6,1.5,3.6,2.7c0.8,1,1.5,2.1,2,3.3c0.5,1.2,0.7,2.6,0.7,4.1c0,1.8-0.5,3.7-1.4,5.4
		c-0.9,1.8-2.5,3-4.6,3.8c1.8,0.7,3.1,1.7,3.8,3.1c0.7,1.3,1.1,3.4,1.1,6.1v2.6c0,1.8,0.1,3,0.2,3.6c0.2,1,0.7,1.7,1.5,2.2v1h-9
		c-0.2-0.9-0.4-1.6-0.5-2.1c-0.2-1.1-0.3-2.2-0.3-3.4L99.9,31c0-2.5-0.5-4.1-1.3-5c-0.8-0.8-2.4-1.2-4.6-1.2H86v15.3h-7.9V1.2h18.6
		C99.4,1.2,101.4,1.6,102.8,2.2z M86,7.9v10.5h8.7c1.7,0,3-0.2,3.9-0.6c1.5-0.7,2.3-2.2,2.3-4.4c0-2.4-0.7-3.9-2.2-4.8
		c-0.8-0.5-2.1-0.7-3.8-0.7H86z"/>
	<path d="M145.2,1.2v6.9h-11.6v32h-8.2v-32h-11.7V1.2H145.2z"/>
	<path d="M149.9,1.2h27.7v6.8H158V17h17.2v6.8H158v16.3h-8.1V1.2z"/>
	<path d="M212.9,36.6c-2.9,3-7.2,4.5-12.7,4.5s-9.8-1.5-12.7-4.5c-3.9-3.7-5.9-9.1-5.9-16c0-7.1,2-12.5,5.9-16
		c2.9-3,7.2-4.5,12.7-4.5s9.8,1.5,12.7,4.5c3.9,3.6,5.9,8.9,5.9,16C218.8,27.6,216.8,32.9,212.9,36.6z M207.8,30.7
		c1.9-2.4,2.8-5.8,2.8-10.1c0-4.4-0.9-7.7-2.8-10.1c-1.9-2.4-4.4-3.6-7.7-3.6s-5.8,1.2-7.7,3.6s-2.9,5.8-2.9,10.1s1,7.8,2.9,10.1
		s4.5,3.6,7.7,3.6S205.9,33.1,207.8,30.7z"/>
	<path d="M225,1.2h8.1v31.9h19.4v7H225V1.2z"/>
	<path d="M265.4,40.1h-8.1V1.2h8.1V40.1z"/>
	<path d="M303,36.6c-2.9,3-7.2,4.5-12.7,4.5s-9.8-1.5-12.7-4.5c-3.9-3.7-5.9-9.1-5.9-16c0-7.1,2-12.5,5.9-16c2.9-3,7.2-4.5,12.7-4.5
		S300,1.5,303,4.5c3.9,3.6,5.9,8.9,5.9,16C308.9,27.6,306.9,32.9,303,36.6z M297.9,30.7c1.9-2.4,2.8-5.8,2.8-10.1
		c0-4.4-0.9-7.7-2.8-10.1c-1.9-2.4-4.4-3.6-7.7-3.6s-5.8,1.2-7.7,3.6s-2.9,5.8-2.9,10.1s1,7.8,2.9,10.1s4.5,3.6,7.7,3.6
		S296,33.1,297.9,30.7z"/>
</g>
<g>
	<path d="M0,55.8h4.9v9.8l9.2-9.8h6.4l-9.7,9.8l10.2,14h-6.4L7.3,69.2l-2.4,2.4v7.9H0V55.8z"/>
	<path d="M23.8,55.8h5v14.6c0,1.6,0.2,2.8,0.6,3.6c0.6,1.3,1.9,2,3.9,2c2,0,3.3-0.7,3.9-2c0.4-0.8,0.6-1.9,0.6-3.6V55.8h5v14.6
		c0,2.5-0.4,4.5-1.2,5.9c-1.5,2.6-4.2,3.9-8.3,3.9s-6.9-1.3-8.4-3.9c-0.8-1.4-1.2-3.4-1.2-5.9V55.8z"/>
	<path d="M47.5,55.8h5.2l9.4,16.5V55.8h4.6v23.7h-5l-9.7-16.8v16.8h-4.6V55.8z"/>
	<path d="M75.9,79.5h-4.9V55.8h4.9V79.5z"/>
	<path d="M98.8,77.4c-1.8,1.8-4.4,2.8-7.8,2.8c-3.4,0-6-0.9-7.8-2.8c-2.4-2.3-3.6-5.5-3.6-9.8c0-4.3,1.2-7.6,3.6-9.8
		c1.8-1.8,4.4-2.8,7.8-2.8c3.4,0,6,0.9,7.8,2.8c2.4,2.2,3.6,5.4,3.6,9.8C102.3,71.9,101.1,75.1,98.8,77.4z M95.7,73.8
		c1.2-1.4,1.7-3.5,1.7-6.2c0-2.7-0.6-4.7-1.7-6.2c-1.2-1.5-2.7-2.2-4.7-2.2c-2,0-3.5,0.7-4.7,2.2s-1.8,3.5-1.8,6.2
		c0,2.7,0.6,4.7,1.8,6.2S89,76,91,76C92.9,76,94.5,75.2,95.7,73.8z"/>
	<path d="M115.2,55.8h5.2l9.4,16.5V55.8h4.6v23.7h-5l-9.7-16.8v16.8h-4.6V55.8z"/>
	<path d="M145.8,55.8h5.6l8.4,23.7h-5.4l-1.6-4.9h-8.7l-1.6,4.9h-5.2L145.8,55.8z M145.5,70.5h6.1l-3-9.3L145.5,70.5z"/>
	<path d="M162.9,55.8h4.9v9.8l9.2-9.8h6.4l-9.7,9.8l10.2,14h-6.4l-7.3-10.4l-2.4,2.4v7.9h-4.9V55.8z"/>
	<path d="M193.4,55.8h5.6l8.4,23.7H202l-1.6-4.9h-8.7l-1.6,4.9H185L193.4,55.8z M193.1,70.5h6.1l-3-9.3L193.1,70.5z"/>
	<path d="M208.8,75.3L220.9,60h-11.8v-4.2h18v4l-12.3,15.6h12.3v4.2h-18.3V75.3z"/>
	<path d="M237.3,55.8h5.6l8.4,23.7H246l-1.6-4.9h-8.7l-1.6,4.9h-5.2L237.3,55.8z M237,70.5h6.1l-3-9.3L237,70.5z"/>
	<path d="M257.6,55.8l3.1,13.6l0.7,3.8l0.7-3.7l2.7-13.7h5.2l2.8,13.6l0.7,3.8l0.7-3.6l3.2-13.7h5l-6.7,23.7H271l-2.9-13.9l-0.8-4.6
		l-0.8,4.6l-2.9,13.9H259l-6.7-23.7H257.6z"/>
	<path d="M292.2,55.8h5.6l8.4,23.7h-5.4l-1.6-4.9h-8.7l-1.6,4.9h-5.2L292.2,55.8z M291.9,70.5h6.1l-3-9.3L291.9,70.5z"/>
</g>
</svg>
